<mxfile host="app.diagrams.net" modified="2022-05-28T14:44:15.754Z" agent="5.0 (Macintosh; Intel Mac OS X 10_15_7) AppleWebKit/537.36 (KHTML, like Gecko) Chrome/100.0.4896.127 Safari/537.36" etag="oDPeT8h2cYDy2gwiL-Qs" version="18.0.8" type="github">
  <diagram id="kcMZXQNx6ER5T4R7imQv" name="修改同一文件同一区域">
    <mxGraphModel dx="1426" dy="769" grid="1" gridSize="10" guides="1" tooltips="1" connect="1" arrows="1" fold="1" page="1" pageScale="1" pageWidth="827" pageHeight="1169" math="0" shadow="0">
      <root>
        <mxCell id="0" />
        <mxCell id="1" parent="0" />
        <mxCell id="J0o5sdl6TmZDrP2AVlRK-3" value="" style="edgeStyle=orthogonalEdgeStyle;rounded=0;orthogonalLoop=1;jettySize=auto;html=1;" edge="1" parent="1" source="J0o5sdl6TmZDrP2AVlRK-1">
          <mxGeometry relative="1" as="geometry">
            <mxPoint x="265" y="330" as="targetPoint" />
          </mxGeometry>
        </mxCell>
        <mxCell id="J0o5sdl6TmZDrP2AVlRK-1" value="Actor" style="shape=umlActor;verticalLabelPosition=bottom;verticalAlign=top;html=1;outlineConnect=0;fillColor=#d5e8d4;strokeColor=#82b366;" vertex="1" parent="1">
          <mxGeometry x="200" y="300" width="30" height="60" as="geometry" />
        </mxCell>
        <mxCell id="J0o5sdl6TmZDrP2AVlRK-6" value="" style="edgeStyle=orthogonalEdgeStyle;rounded=0;orthogonalLoop=1;jettySize=auto;html=1;" edge="1" parent="1" source="J0o5sdl6TmZDrP2AVlRK-4" target="J0o5sdl6TmZDrP2AVlRK-5">
          <mxGeometry relative="1" as="geometry" />
        </mxCell>
        <mxCell id="J0o5sdl6TmZDrP2AVlRK-4" value="修改文件" style="rounded=1;whiteSpace=wrap;html=1;" vertex="1" parent="1">
          <mxGeometry x="270" y="300" width="120" height="60" as="geometry" />
        </mxCell>
        <mxCell id="J0o5sdl6TmZDrP2AVlRK-5" value="提交并推送" style="whiteSpace=wrap;html=1;rounded=1;" vertex="1" parent="1">
          <mxGeometry x="470" y="300" width="120" height="60" as="geometry" />
        </mxCell>
        <mxCell id="J0o5sdl6TmZDrP2AVlRK-7" value="" style="edgeStyle=orthogonalEdgeStyle;rounded=0;orthogonalLoop=1;jettySize=auto;html=1;" edge="1" parent="1" source="J0o5sdl6TmZDrP2AVlRK-8">
          <mxGeometry relative="1" as="geometry">
            <mxPoint x="265" y="460" as="targetPoint" />
          </mxGeometry>
        </mxCell>
        <mxCell id="J0o5sdl6TmZDrP2AVlRK-8" value="Actor" style="shape=umlActor;verticalLabelPosition=bottom;verticalAlign=top;html=1;outlineConnect=0;fillColor=#f8cecc;strokeColor=#b85450;" vertex="1" parent="1">
          <mxGeometry x="200" y="430" width="30" height="60" as="geometry" />
        </mxCell>
        <mxCell id="J0o5sdl6TmZDrP2AVlRK-9" value="" style="edgeStyle=orthogonalEdgeStyle;rounded=0;orthogonalLoop=1;jettySize=auto;html=1;" edge="1" parent="1" source="J0o5sdl6TmZDrP2AVlRK-10" target="J0o5sdl6TmZDrP2AVlRK-11">
          <mxGeometry relative="1" as="geometry" />
        </mxCell>
        <mxCell id="J0o5sdl6TmZDrP2AVlRK-10" value="修改文件" style="rounded=1;whiteSpace=wrap;html=1;" vertex="1" parent="1">
          <mxGeometry x="270" y="430" width="120" height="60" as="geometry" />
        </mxCell>
        <mxCell id="J0o5sdl6TmZDrP2AVlRK-20" value="" style="edgeStyle=orthogonalEdgeStyle;rounded=0;orthogonalLoop=1;jettySize=auto;html=1;" edge="1" parent="1" source="J0o5sdl6TmZDrP2AVlRK-11" target="J0o5sdl6TmZDrP2AVlRK-19">
          <mxGeometry relative="1" as="geometry" />
        </mxCell>
        <mxCell id="J0o5sdl6TmZDrP2AVlRK-11" value="提交并推送" style="whiteSpace=wrap;html=1;rounded=1;" vertex="1" parent="1">
          <mxGeometry x="690" y="430" width="120" height="60" as="geometry" />
        </mxCell>
        <mxCell id="J0o5sdl6TmZDrP2AVlRK-15" value="" style="group" vertex="1" connectable="0" parent="1">
          <mxGeometry x="400" y="250" width="60" height="290" as="geometry" />
        </mxCell>
        <mxCell id="J0o5sdl6TmZDrP2AVlRK-13" value="" style="line;strokeWidth=1;direction=south;html=1;dashed=1;" vertex="1" parent="J0o5sdl6TmZDrP2AVlRK-15">
          <mxGeometry x="20" y="20" width="10" height="270" as="geometry" />
        </mxCell>
        <mxCell id="J0o5sdl6TmZDrP2AVlRK-14" value="&lt;b&gt;时间点一&lt;/b&gt;" style="text;html=1;align=center;verticalAlign=middle;resizable=0;points=[];autosize=1;strokeColor=none;fillColor=none;" vertex="1" parent="J0o5sdl6TmZDrP2AVlRK-15">
          <mxGeometry width="60" height="20" as="geometry" />
        </mxCell>
        <mxCell id="J0o5sdl6TmZDrP2AVlRK-16" value="" style="group" vertex="1" connectable="0" parent="1">
          <mxGeometry x="620" y="250" width="60" height="290" as="geometry" />
        </mxCell>
        <mxCell id="J0o5sdl6TmZDrP2AVlRK-17" value="" style="line;strokeWidth=1;direction=south;html=1;dashed=1;" vertex="1" parent="J0o5sdl6TmZDrP2AVlRK-16">
          <mxGeometry x="20" y="20" width="10" height="270" as="geometry" />
        </mxCell>
        <mxCell id="J0o5sdl6TmZDrP2AVlRK-18" value="&lt;b&gt;时间点二&lt;br&gt;&lt;/b&gt;" style="text;html=1;align=center;verticalAlign=middle;resizable=0;points=[];autosize=1;strokeColor=none;fillColor=none;" vertex="1" parent="J0o5sdl6TmZDrP2AVlRK-16">
          <mxGeometry width="60" height="20" as="geometry" />
        </mxCell>
        <mxCell id="J0o5sdl6TmZDrP2AVlRK-22" value="" style="edgeStyle=orthogonalEdgeStyle;rounded=0;orthogonalLoop=1;jettySize=auto;html=1;" edge="1" parent="1" source="J0o5sdl6TmZDrP2AVlRK-19" target="J0o5sdl6TmZDrP2AVlRK-21">
          <mxGeometry relative="1" as="geometry" />
        </mxCell>
        <mxCell id="J0o5sdl6TmZDrP2AVlRK-19" value="推送错误" style="whiteSpace=wrap;html=1;rounded=1;fillColor=#d80073;fontColor=#ffffff;strokeColor=#A50040;" vertex="1" parent="1">
          <mxGeometry x="850" y="430" width="120" height="60" as="geometry" />
        </mxCell>
        <mxCell id="J0o5sdl6TmZDrP2AVlRK-31" value="" style="edgeStyle=orthogonalEdgeStyle;rounded=0;orthogonalLoop=1;jettySize=auto;html=1;fontColor=#000000;entryX=0.5;entryY=1;entryDx=0;entryDy=0;" edge="1" parent="1" source="J0o5sdl6TmZDrP2AVlRK-21" target="J0o5sdl6TmZDrP2AVlRK-28">
          <mxGeometry relative="1" as="geometry">
            <mxPoint x="1070" y="350" as="targetPoint" />
          </mxGeometry>
        </mxCell>
        <mxCell id="J0o5sdl6TmZDrP2AVlRK-21" value="更新代码&lt;br&gt;自动合并" style="whiteSpace=wrap;html=1;rounded=1;" vertex="1" parent="1">
          <mxGeometry x="1010" y="430" width="120" height="60" as="geometry" />
        </mxCell>
        <mxCell id="J0o5sdl6TmZDrP2AVlRK-33" value="" style="edgeStyle=orthogonalEdgeStyle;rounded=0;orthogonalLoop=1;jettySize=auto;html=1;fontColor=#000000;" edge="1" parent="1" source="J0o5sdl6TmZDrP2AVlRK-28" target="J0o5sdl6TmZDrP2AVlRK-32">
          <mxGeometry relative="1" as="geometry" />
        </mxCell>
        <mxCell id="J0o5sdl6TmZDrP2AVlRK-28" value="冲突代码自动合并样式" style="swimlane;dashed=1;fontColor=#000000;strokeWidth=1;swimlaneFillColor=default;" vertex="1" parent="1">
          <mxGeometry x="970" y="160" width="200" height="180" as="geometry">
            <mxRectangle x="970" y="160" width="100" height="23" as="alternateBounds" />
          </mxGeometry>
        </mxCell>
        <mxCell id="J0o5sdl6TmZDrP2AVlRK-29" value="&lt;font style=&quot;&quot; color=&quot;#ff9933&quot;&gt;&amp;lt;&amp;lt;&amp;lt;&amp;lt; HEAD&lt;br&gt;&lt;/font&gt;&lt;br style=&quot;color: rgb(0, 0, 0);&quot;&gt;&lt;span style=&quot;color: rgb(0, 0, 0);&quot;&gt;本地代码&lt;br&gt;&lt;/span&gt;&lt;br style=&quot;color: rgb(0, 0, 0);&quot;&gt;&lt;font style=&quot;&quot; color=&quot;#ff9933&quot;&gt;=========&lt;br&gt;&lt;/font&gt;&lt;br style=&quot;color: rgb(0, 0, 0);&quot;&gt;&lt;span style=&quot;color: rgb(0, 0, 0);&quot;&gt;更新的代码&lt;br&gt;&lt;/span&gt;&lt;br style=&quot;color: rgb(0, 0, 0);&quot;&gt;&lt;font style=&quot;&quot; color=&quot;#ffb366&quot;&gt;&amp;gt;&amp;gt;&amp;gt;&amp;gt;更新代码的commit的Hash&lt;/font&gt;" style="text;html=1;align=center;verticalAlign=middle;resizable=0;points=[];autosize=1;strokeColor=none;fillColor=none;fontColor=#FF9933;" vertex="1" parent="J0o5sdl6TmZDrP2AVlRK-28">
          <mxGeometry x="10" y="40" width="180" height="130" as="geometry" />
        </mxCell>
        <mxCell id="J0o5sdl6TmZDrP2AVlRK-35" value="" style="edgeStyle=orthogonalEdgeStyle;rounded=0;orthogonalLoop=1;jettySize=auto;html=1;fontColor=#000000;" edge="1" parent="1" source="J0o5sdl6TmZDrP2AVlRK-32" target="J0o5sdl6TmZDrP2AVlRK-34">
          <mxGeometry relative="1" as="geometry" />
        </mxCell>
        <mxCell id="J0o5sdl6TmZDrP2AVlRK-32" value="手动处理冲突" style="whiteSpace=wrap;html=1;rounded=1;" vertex="1" parent="1">
          <mxGeometry x="1241" y="220" width="120" height="60" as="geometry" />
        </mxCell>
        <mxCell id="J0o5sdl6TmZDrP2AVlRK-34" value="添加提交推送" style="whiteSpace=wrap;html=1;rounded=1;" vertex="1" parent="1">
          <mxGeometry x="1241" y="430" width="120" height="60" as="geometry" />
        </mxCell>
      </root>
    </mxGraphModel>
  </diagram>
</mxfile>
